<mxfile host="app.diagrams.net" agent="Mozilla/5.0 (Windows NT 10.0; Win64; x64) AppleWebKit/537.36 (KHTML, like Gecko) Chrome/127.0.0.0 Safari/537.36 Edg/127.0.0.0" version="24.7.6">
  <diagram name="Halaman-1" id="JqPpePoBxo4STps1Dqjn">
    <mxGraphModel dx="956" dy="569" grid="1" gridSize="10" guides="1" tooltips="1" connect="1" arrows="1" fold="1" page="1" pageScale="1" pageWidth="827" pageHeight="1169" math="0" shadow="0">
      <root>
        <mxCell id="0" />
        <mxCell id="1" parent="0" />
        <mxCell id="QlzkI7KmlhrjsGnMyUFH-1" value="PENJUAL" style="rounded=0;whiteSpace=wrap;html=1;" vertex="1" parent="1">
          <mxGeometry x="100" y="220" width="120" height="60" as="geometry" />
        </mxCell>
        <mxCell id="QlzkI7KmlhrjsGnMyUFH-2" value="PEMBELI" style="rounded=0;whiteSpace=wrap;html=1;" vertex="1" parent="1">
          <mxGeometry x="350" y="220" width="120" height="60" as="geometry" />
        </mxCell>
        <mxCell id="QlzkI7KmlhrjsGnMyUFH-3" value="&lt;u&gt;EMAIL&lt;/u&gt;" style="ellipse;whiteSpace=wrap;html=1;" vertex="1" parent="1">
          <mxGeometry x="113" y="90" width="75" height="30" as="geometry" />
        </mxCell>
        <mxCell id="QlzkI7KmlhrjsGnMyUFH-4" value="&lt;u&gt;EMAIL&lt;/u&gt;" style="ellipse;whiteSpace=wrap;html=1;" vertex="1" parent="1">
          <mxGeometry x="370" y="90" width="70" height="30" as="geometry" />
        </mxCell>
        <mxCell id="QlzkI7KmlhrjsGnMyUFH-5" value="BARANG" style="rounded=0;whiteSpace=wrap;html=1;" vertex="1" parent="1">
          <mxGeometry x="220" y="380" width="120" height="60" as="geometry" />
        </mxCell>
        <mxCell id="QlzkI7KmlhrjsGnMyUFH-6" value="&lt;u&gt;SKU&lt;/u&gt;" style="ellipse;whiteSpace=wrap;html=1;" vertex="1" parent="1">
          <mxGeometry x="245" y="510" width="70" height="40" as="geometry" />
        </mxCell>
        <mxCell id="QlzkI7KmlhrjsGnMyUFH-7" value="" style="endArrow=none;html=1;rounded=0;entryX=0.5;entryY=1;entryDx=0;entryDy=0;exitX=0.5;exitY=0;exitDx=0;exitDy=0;" edge="1" parent="1" source="QlzkI7KmlhrjsGnMyUFH-6" target="QlzkI7KmlhrjsGnMyUFH-5">
          <mxGeometry width="50" height="50" relative="1" as="geometry">
            <mxPoint x="380" y="450" as="sourcePoint" />
            <mxPoint x="430" y="400" as="targetPoint" />
            <Array as="points" />
          </mxGeometry>
        </mxCell>
        <mxCell id="QlzkI7KmlhrjsGnMyUFH-8" value="" style="endArrow=none;html=1;rounded=0;entryX=0.5;entryY=1;entryDx=0;entryDy=0;" edge="1" parent="1" source="QlzkI7KmlhrjsGnMyUFH-2" target="QlzkI7KmlhrjsGnMyUFH-4">
          <mxGeometry width="50" height="50" relative="1" as="geometry">
            <mxPoint x="380" y="270" as="sourcePoint" />
            <mxPoint x="430" y="220" as="targetPoint" />
            <Array as="points" />
          </mxGeometry>
        </mxCell>
        <mxCell id="QlzkI7KmlhrjsGnMyUFH-11" value="" style="endArrow=none;html=1;rounded=0;entryX=0.5;entryY=1;entryDx=0;entryDy=0;exitX=0.5;exitY=0;exitDx=0;exitDy=0;" edge="1" parent="1" source="QlzkI7KmlhrjsGnMyUFH-1" target="QlzkI7KmlhrjsGnMyUFH-3">
          <mxGeometry width="50" height="50" relative="1" as="geometry">
            <mxPoint x="380" y="270" as="sourcePoint" />
            <mxPoint x="430" y="220" as="targetPoint" />
            <Array as="points">
              <mxPoint x="150" y="160" />
            </Array>
          </mxGeometry>
        </mxCell>
        <mxCell id="QlzkI7KmlhrjsGnMyUFH-12" value="&lt;u&gt;ALAMAT&lt;/u&gt;" style="ellipse;whiteSpace=wrap;html=1;" vertex="1" parent="1">
          <mxGeometry x="210" y="100" width="80" height="40" as="geometry" />
        </mxCell>
        <mxCell id="QlzkI7KmlhrjsGnMyUFH-13" value="" style="endArrow=none;html=1;rounded=0;entryX=0.375;entryY=1;entryDx=0;entryDy=0;entryPerimeter=0;" edge="1" parent="1" target="QlzkI7KmlhrjsGnMyUFH-12">
          <mxGeometry width="50" height="50" relative="1" as="geometry">
            <mxPoint x="160" y="220" as="sourcePoint" />
            <mxPoint x="210" y="170" as="targetPoint" />
          </mxGeometry>
        </mxCell>
        <mxCell id="QlzkI7KmlhrjsGnMyUFH-14" value="&lt;u&gt;NAMA&lt;/u&gt;" style="ellipse;whiteSpace=wrap;html=1;" vertex="1" parent="1">
          <mxGeometry x="20" y="120" width="100" height="40" as="geometry" />
        </mxCell>
        <mxCell id="QlzkI7KmlhrjsGnMyUFH-16" value="" style="endArrow=none;html=1;rounded=0;entryX=0.375;entryY=1;entryDx=0;entryDy=0;entryPerimeter=0;" edge="1" parent="1">
          <mxGeometry width="50" height="50" relative="1" as="geometry">
            <mxPoint x="160" y="220" as="sourcePoint" />
            <mxPoint x="70" y="160" as="targetPoint" />
          </mxGeometry>
        </mxCell>
        <mxCell id="QlzkI7KmlhrjsGnMyUFH-17" value="" style="endArrow=none;html=1;rounded=0;entryX=0.378;entryY=0.95;entryDx=0;entryDy=0;entryPerimeter=0;" edge="1" parent="1" target="QlzkI7KmlhrjsGnMyUFH-18">
          <mxGeometry width="50" height="50" relative="1" as="geometry">
            <mxPoint x="414" y="220" as="sourcePoint" />
            <mxPoint x="494" y="140" as="targetPoint" />
          </mxGeometry>
        </mxCell>
        <mxCell id="QlzkI7KmlhrjsGnMyUFH-18" value="&lt;u&gt;ALAMAT&lt;/u&gt;" style="ellipse;whiteSpace=wrap;html=1;" vertex="1" parent="1">
          <mxGeometry x="470" y="100" width="80" height="40" as="geometry" />
        </mxCell>
        <mxCell id="QlzkI7KmlhrjsGnMyUFH-19" value="&lt;u&gt;NAMA&lt;/u&gt;" style="ellipse;whiteSpace=wrap;html=1;" vertex="1" parent="1">
          <mxGeometry x="300" y="130" width="80" height="30" as="geometry" />
        </mxCell>
        <mxCell id="QlzkI7KmlhrjsGnMyUFH-23" value="" style="endArrow=none;html=1;rounded=0;entryX=0.5;entryY=1;entryDx=0;entryDy=0;exitX=0.5;exitY=0;exitDx=0;exitDy=0;" edge="1" parent="1" source="QlzkI7KmlhrjsGnMyUFH-2" target="QlzkI7KmlhrjsGnMyUFH-19">
          <mxGeometry width="50" height="50" relative="1" as="geometry">
            <mxPoint x="364" y="250" as="sourcePoint" />
            <mxPoint x="350" y="170" as="targetPoint" />
            <Array as="points" />
          </mxGeometry>
        </mxCell>
        <mxCell id="QlzkI7KmlhrjsGnMyUFH-24" value="STOK" style="ellipse;whiteSpace=wrap;html=1;" vertex="1" parent="1">
          <mxGeometry x="340" y="510" width="60" height="40" as="geometry" />
        </mxCell>
        <mxCell id="QlzkI7KmlhrjsGnMyUFH-25" value="HARGA" style="ellipse;whiteSpace=wrap;html=1;" vertex="1" parent="1">
          <mxGeometry x="160" y="510" width="69.5" height="40" as="geometry" />
        </mxCell>
        <mxCell id="QlzkI7KmlhrjsGnMyUFH-26" value="" style="endArrow=none;html=1;rounded=0;entryX=0.5;entryY=1;entryDx=0;entryDy=0;exitX=0.617;exitY=0;exitDx=0;exitDy=0;exitPerimeter=0;" edge="1" parent="1" source="QlzkI7KmlhrjsGnMyUFH-24" target="QlzkI7KmlhrjsGnMyUFH-5">
          <mxGeometry width="50" height="50" relative="1" as="geometry">
            <mxPoint x="290" y="520" as="sourcePoint" />
            <mxPoint x="290" y="450" as="targetPoint" />
            <Array as="points" />
          </mxGeometry>
        </mxCell>
        <mxCell id="QlzkI7KmlhrjsGnMyUFH-27" value="" style="endArrow=none;html=1;rounded=0;entryX=0.5;entryY=1;entryDx=0;entryDy=0;exitX=0.5;exitY=0;exitDx=0;exitDy=0;" edge="1" parent="1" source="QlzkI7KmlhrjsGnMyUFH-25" target="QlzkI7KmlhrjsGnMyUFH-5">
          <mxGeometry width="50" height="50" relative="1" as="geometry">
            <mxPoint x="245" y="520" as="sourcePoint" />
            <mxPoint x="148" y="450" as="targetPoint" />
            <Array as="points" />
          </mxGeometry>
        </mxCell>
        <mxCell id="QlzkI7KmlhrjsGnMyUFH-28" value="NAMA" style="ellipse;whiteSpace=wrap;html=1;" vertex="1" parent="1">
          <mxGeometry x="380" y="460" width="70" height="40" as="geometry" />
        </mxCell>
        <mxCell id="QlzkI7KmlhrjsGnMyUFH-29" value="" style="endArrow=none;html=1;rounded=0;entryX=0.5;entryY=1;entryDx=0;entryDy=0;exitX=0.5;exitY=0;exitDx=0;exitDy=0;" edge="1" parent="1" source="QlzkI7KmlhrjsGnMyUFH-28" target="QlzkI7KmlhrjsGnMyUFH-5">
          <mxGeometry width="50" height="50" relative="1" as="geometry">
            <mxPoint x="390" y="510" as="sourcePoint" />
            <mxPoint x="290" y="450" as="targetPoint" />
            <Array as="points" />
          </mxGeometry>
        </mxCell>
      </root>
    </mxGraphModel>
  </diagram>
</mxfile>
